<svg xmlns="http://www.w3.org/2000/svg" width="1024" height="500" viewBox="0 0 1024 500">
  <defs>
    <linearGradient id="bg" gradientUnits="userSpaceOnUse" x1="0" y1="0" x2="1024" y2="500">
      <stop offset="0" stop-color="#7B5BD0"/>
      <stop offset="0.55" stop-color="#5237A8"/>
      <stop offset="1" stop-color="#2E2168"/>
    </linearGradient>
    <radialGradient id="halo" cx="0.23" cy="0.5" r="0.45">
      <stop offset="0" stop-color="#FFFFFF" stop-opacity="0.10"/>
      <stop offset="1" stop-color="#FFFFFF" stop-opacity="0"/>
    </radialGradient>
  </defs>
  <rect width="1024" height="500" fill="url(#bg)"/>
  <rect width="1024" height="500" fill="url(#halo)"/>
  <!-- left side reads as the literal app icon: a rounded plum tile with the glyph inside -->
  <rect x="118" y="135" width="230" height="230" rx="52" fill="url(#plumTile)"/>
  
  <linearGradient id="plumTile" gradientUnits="userSpaceOnUse" x1="118" y1="135" x2="348" y2="365">
    <stop offset="0" stop-color="#8A63D8"/>
    <stop offset="0.55" stop-color="#6342B8"/>
    <stop offset="1" stop-color="#3E2E84"/>
  </linearGradient>
  <g transform="translate(118,135) scale(2.1296)">
    
  <g transform="translate(18.36,18.36) scale(0.7128)">
    <path fill="#FFFFFF" fill-opacity="0.30" d="M34,22 L66,22 A6,6 0 0 1 72,28 L72,30 A6,6 0 0 1 66,36 L34,36 A6,6 0 0 1 28,30 L28,28 A6,6 0 0 1 34,22 Z"/>
    <path fill="#FFFFFF" fill-opacity="0.5" d="M29,32 L71,32 A7,7 0 0 1 78,39 L78,41 A7,7 0 0 1 71,48 L29,48 A7,7 0 0 1 22,41 L22,39 A7,7 0 0 1 29,32 Z"/>
    <path fill="#FFFFFF" d="M27,45 L69,45 A11,11 0 0 1 80,56 L80,67 A11,11 0 0 1 69,78 L27,78 A11,11 0 0 1 16,67 L16,56 A11,11 0 0 1 27,45 Z"/>
    <path fill="#5B4FCE" d="M24.2,58 a3.8,3.8 0 1,0 7.6,0 a3.8,3.8 0 1,0 -7.6,0 Z"/>
    <path fill="#5B4FCE" d="M39.2,54.5 L64.8,54.5 A3.2,3.2 0 0 1 64.8,60.9 L39.2,60.9 A3.2,3.2 0 0 1 39.2,54.5 Z"/>
    <path fill="#5B4FCE" fill-opacity="0.45" d="M31.2,66 L64.8,66 A3.2,3.2 0 0 1 64.8,72.4 L31.2,72.4 A3.2,3.2 0 0 1 31.2,66 Z"/>
    <path fill="#5B4FCE" d="M64.5,24 a15.5,15.5 0 1,0 31,0 a15.5,15.5 0 1,0 -31,0 Z"/>
    <path fill="#FFFFFF" d="M67,24 a13,13 0 1,0 26,0 a13,13 0 1,0 -26,0 Z"/>
    <path stroke="#5B4FCE" stroke-width="2.4" stroke-linecap="round" fill="none" d="M80,24 L80,17.5 M80,24 L84.5,26"/>
    <path fill="#5B4FCE" d="M78.4,24 a1.6,1.6 0 1,0 3.2,0 a1.6,1.6 0 1,0 -3.2,0 Z"/>
  </g>
  </g>
  <g font-family="Segoe UI, Arial, sans-serif">
    <text x="470" y="220" fill="#FFFFFF" font-size="76" font-weight="700" letter-spacing="-1">Notification</text>
    <text x="470" y="300" fill="#FFFFFF" font-size="76" font-weight="700" letter-spacing="-1">Digest</text>
    <text x="472" y="356" fill="#D9CCF7" font-size="30" font-weight="400">Quiet apps. One calm summary.</text>
  </g>
</svg>